<?xml version="1.0" encoding="iso-8859-1"?>
<!-- Generator: Adobe Illustrator 19.0.0, SVG Export Plug-In . SVG Version: 6.00 Build 0)  -->
<svg version="1.1" id="Layer_1" xmlns="http://www.w3.org/2000/svg" xmlns:xlink="http://www.w3.org/1999/xlink" x="0px" y="0px"
	 viewBox="0 0 512.002 512.002" style="enable-background:new 0 0 512.002 512.002;" xml:space="preserve">
<path style="fill:#415E5C;" d="M441.456,156.89h-28.335v-29.899H39.575v147.982c0,81.39,65.85,147.982,146.333,147.982h80.882
	c62.631,0,116.398-40.333,137.168-96.583h37.498c38.899,0,70.545-31.669,70.545-70.596v-28.291
	C512.001,188.559,480.355,156.89,441.456,156.89z M488.37,255.777c0,25.926-21.047,47.019-46.915,47.019h-30.958
	c1.714-9.019,2.623-18.318,2.623-27.823v-94.507h28.335c25.868,0,46.915,21.092,46.915,47.018V255.777z"/>
<path style="fill:#5B7F81;" d="M162.698,350.778H81.816c-7.635,0-15.137-0.602-22.466-1.756
	c-12.562-21.813-19.775-47.118-19.775-74.047V126.991h269.456v75.804C309.03,284.185,243.177,350.778,162.698,350.778z"/>
<path style="fill:#FFBB5E;" d="M157.935,239.903c3.827,3.575,4.025,9.569,0.442,13.387c-1.869,1.991-4.397,2.997-6.931,2.997
	c-2.325,0-4.655-0.847-6.486-2.558c-16.46-15.376-25.156-38.394-24.487-64.816c0.619-24.448,9.355-48.939,23.967-67.192
	c11.785-14.726,18.702-34.901,18.977-55.348c0.28-20.852-6.274-38.605-18.459-49.989c-3.827-3.575-4.024-9.569-0.441-13.387
	c3.583-3.818,9.59-4.015,13.417-0.44c16.13,15.071,24.819,37.825,24.465,64.07c-0.331,24.572-8.76,48.962-23.126,66.913
	C136.008,162.607,130.492,214.267,157.935,239.903z M227.992,133.544c14.369-17.951,22.801-42.341,23.131-66.914
	c0.354-26.247-8.337-49.001-24.471-64.07c-3.826-3.575-9.834-3.377-13.417,0.441s-3.385,9.811,0.442,13.387
	c12.187,11.383,18.744,29.136,18.462,49.988c-0.275,20.447-7.195,40.621-18.983,55.349c-14.609,18.253-23.342,42.743-23.96,67.191
	c-0.67,26.421,8.024,49.439,24.48,64.816c1.831,1.711,4.161,2.558,6.487,2.558c2.533,0,5.062-1.006,6.931-2.996
	c3.583-3.818,3.387-9.811-0.441-13.387C199.218,214.269,204.732,162.607,227.992,133.544z"/>
</svg>
