<?xml version="1.0" encoding="iso-8859-1"?>
<!-- Generator: Adobe Illustrator 19.0.0, SVG Export Plug-In . SVG Version: 6.00 Build 0)  -->
<svg version="1.1" id="Layer_1" xmlns="http://www.w3.org/2000/svg" xmlns:xlink="http://www.w3.org/1999/xlink" x="0px" y="0px"
	 viewBox="0 0 396.283 396.283" style="enable-background:new 0 0 396.283 396.283;" xml:space="preserve">
<rect id="SVGCleanerId_0" x="30.901" y="55.37" style="fill:#FFFFFF;" width="334.416" height="233.05"/>
<rect id="SVGCleanerId_1" x="61.802" y="86.271" style="fill:#2EA2DB;" width="272.614" height="176.162"/>
<g>
	<path style="fill:#FFFFFF;" d="M6.206,288.42c0,25.341,20.428,52.558,46.352,52.558h291.168c25.341,0,46.352-26.57,46.352-52.558
		H6.206z"/>
	<circle style="fill:#FFFFFF;" cx="173.705" cy="150.594" r="17.325"/>
</g>
<path id="SVGCleanerId_2" style="fill:#193651;" d="M173.705,174.061c-12.994,0-23.467-10.537-23.467-23.467
	c0-12.994,10.537-23.467,23.467-23.467c12.994,0,23.467,10.537,23.467,23.467C197.172,163.523,186.699,174.061,173.705,174.061z
	 M173.705,139.475c-6.206,0-11.119,4.913-11.119,11.119c0,6.206,4.978,11.119,11.119,11.119c6.141,0,11.119-4.913,11.119-11.119
	C184.824,144.388,179.911,139.475,173.705,139.475z"/>
<g>
	<rect id="SVGCleanerId_0_1_" x="30.901" y="55.37" style="fill:#FFFFFF;" width="334.416" height="233.05"/>
</g>
<g>
	<rect id="SVGCleanerId_1_1_" x="61.802" y="86.271" style="fill:#2EA2DB;" width="272.614" height="176.162"/>
</g>
<path style="fill:#193651;" d="M370.941,282.214V49.164H24.76v233.05H0v6.206c0,27.798,22.238,58.699,52.558,58.699h291.168
	c29.673,0,52.558-30.901,52.558-58.699v-6.206H370.941L370.941,282.214z M37.107,61.576h321.487v220.638H37.107V61.576z
	 M343.079,334.772H52.558c-20.428,0-36.461-20.428-39.564-40.21h369.648C380.186,314.408,363.507,334.772,343.079,334.772z"/>
<g>
	<path style="fill:#FFFFFF;" d="M267.701,225.39l-31.547-31.547c-3.879-3.879-8.921-5.042-13.576-3.491l-10.02-10.02
		c14.739-19.329,13.382-47.386-4.267-64.97c-19.135-19.135-50.683-19.135-69.883,0c-19.135,19.135-19.135,50.683,0,69.883
		c17.584,17.584,45.64,19.006,64.905,4.267l10.02,10.02c-1.487,4.59-0.323,9.632,3.556,13.511l31.547,31.547
		c5.56,5.56,13.576,5.56,19.135,0C272.614,238.966,272.614,230.95,267.701,225.39z"/>
	<circle style="fill:#FFFFFF;" cx="173.705" cy="150.594" r="17.325"/>
</g>
<g>
	<path id="SVGCleanerId_2_1_" style="fill:#193651;" d="M173.705,174.061c-12.994,0-23.467-10.537-23.467-23.467
		c0-12.994,10.537-23.467,23.467-23.467c12.994,0,23.467,10.537,23.467,23.467C197.172,163.523,186.699,174.061,173.705,174.061z
		 M173.705,139.475c-6.206,0-11.119,4.913-11.119,11.119c0,6.206,4.978,11.119,11.119,11.119c6.141,0,11.119-4.913,11.119-11.119
		C184.824,144.388,179.911,139.475,173.705,139.475z"/>
</g>
<g>
	<rect x="159.806" y="308.202" style="fill:#193651;" width="12.347" height="12.347"/>
	<rect x="191.935" y="308.202" style="fill:#193651;" width="12.347" height="12.347"/>
	<rect x="224.065" y="308.202" style="fill:#193651;" width="12.347" height="12.347"/>
</g>
<g>
</g>
<g>
</g>
<g>
</g>
<g>
</g>
<g>
</g>
<g>
</g>
<g>
</g>
<g>
</g>
<g>
</g>
<g>
</g>
<g>
</g>
<g>
</g>
<g>
</g>
<g>
</g>
<g>
</g>
</svg>
