<?xml version="1.0" encoding="iso-8859-1"?>
<!-- Generator: Adobe Illustrator 19.0.0, SVG Export Plug-In . SVG Version: 6.00 Build 0)  -->
<svg version="1.1" id="Layer_1" xmlns="http://www.w3.org/2000/svg" xmlns:xlink="http://www.w3.org/1999/xlink" x="0px" y="0px"
	 viewBox="0 0 395.636 395.636" style="enable-background:new 0 0 395.636 395.636;" xml:space="preserve">
<path style="fill:#FFFFFF;" d="M263.37,6.206H21.657c-6.788,0-12.347,5.56-12.347,12.347v358.529c0,6.788,5.56,12.347,12.347,12.347
	H263.37c6.788,0,12.347-5.56,12.347-12.347V18.554C275.717,11.766,270.158,6.206,263.37,6.206z"/>
<g>
	<path style="fill:#4FBF9F;" d="M9.244,331.96v45.123c0,6.788,5.56,12.347,12.347,12.347h241.713c6.788,0,12.347-5.56,12.347-12.347
		V331.96H9.244z"/>
	<path style="fill:#4FBF9F;" d="M263.37,6.206H21.657c-6.788,0-12.347,5.56-12.347,12.347v36.461h266.408V18.554
		C275.717,11.766,270.158,6.206,263.37,6.206z"/>
</g>
<g>
	<rect x="113.778" y="351.741" style="fill:#193651;" width="58.117" height="12.347"/>
	<rect x="186.699" y="351.741" style="fill:#193651;" width="16.097" height="12.347"/>
	<rect x="82.23" y="351.741" style="fill:#193651;" width="16.097" height="12.347"/>
	<rect x="126.707" y="26.57" style="fill:#193651;" width="31.547" height="12.347"/>
	<polygon style="fill:#193651;" points="121.147,258.392 112.485,249.729 189.802,169.374 302.933,202.15 369.648,127.935 
		378.958,136.016 307.265,216.372 193.487,183.014 	"/>
</g>
<circle style="fill:#2EA2DB;" cx="304.743" cy="208.937" r="17.907"/>
<circle style="fill:#FDBF5E;" cx="374.626" cy="132.267" r="17.907"/>
<circle style="fill:#F16051;" cx="116.816" cy="254.061" r="17.907"/>
<circle style="fill:#4FBF9F;" cx="191.612" cy="176.162" r="17.907"/>
<path style="fill:#193651;" d="M281.859,157.026V18.554C281.859,8.016,273.842,0,263.305,0H21.657
	C11.119,0,3.103,8.016,3.103,18.554v358.529c0,10.537,8.016,18.554,18.554,18.554H263.37c10.537,0,18.554-8.016,18.554-18.554
	V236.154h-12.347v140.929c0,3.685-2.457,6.206-6.206,6.206H21.657c-3.685,0-6.206-2.457-6.206-6.206V18.554
	c0-3.685,2.457-6.206,6.206-6.206H263.37c3.685,0,6.206,2.457,6.206,6.206v138.473H281.859z"/>
<g>
</g>
<g>
</g>
<g>
</g>
<g>
</g>
<g>
</g>
<g>
</g>
<g>
</g>
<g>
</g>
<g>
</g>
<g>
</g>
<g>
</g>
<g>
</g>
<g>
</g>
<g>
</g>
<g>
</g>
</svg>
